<svg xmlns="http://www.w3.org/2000/svg" xmlns:xlink="http://www.w3.org/1999/xlink" width="98" height="92" viewBox="0 0 98 92">
  <defs>
    <linearGradient id="linear-gradient" x1="0.5" x2="0.5" y2="1" gradientUnits="objectBoundingBox">
      <stop offset="0" stop-color="#e4acff"/>
      <stop offset="0.008" stop-color="#fd979f"/>
      <stop offset="1" stop-color="#d252f7"/>
    </linearGradient>
    <clipPath id="clip-bird">
      <rect width="98" height="92"/>
    </clipPath>
  </defs>
  <g id="bird" clip-path="url(#clip-bird)">
    <rect width="98" height="92" fill="#fff"/>
    <g id="Group_1649" data-name="Group 1649" transform="translate(-96 -36.196)">
      <path id="Path_14375" data-name="Path 14375" d="M11510.16,6363.572c-.008.076-.013.15-.013.15-.009.125-.016.249-.019.374v.285c0,.095,0,.2.01.3.009.2.027.4.054.606.454,3.3,2.954,5.85,5.483,7.658.088.063.177.121.266.182.141.1.281.2.422.291.182.12.358.233.541.346.047.029.094.062.142.09.679.422,1.331.789,1.923,1.1a55.813,55.813,0,0,0,18.965-12.187c-5.533.45-13.032.083-19.139-4.448a18.943,18.943,0,0,1-2.061-1.786,12.7,12.7,0,0,1-1.121-1.372c-.642.575-1.3,1.2-1.961,1.866q-.709.713-1.344,1.408A12.9,12.9,0,0,0,11510.16,6363.572Z" transform="translate(-11353.053 -6252.09)" fill="url(#linear-gradient)"/>
      <g id="Group_1648" data-name="Group 1648" transform="translate(97.549 38.196)">
        <path id="Path_14367" data-name="Path 14367" d="M10429.683,5443.85c0-.036.009-.07.014-.109s.01-.068.014-.1q.073-.5.159-1.02c0-.034.012-.068.018-.1a41.046,41.046,0,0,1,2.212-8.046c.063-.168.129-.334.192-.492.052-.124.1-.25.152-.375.441-1.066.827-1.868,1.082-2.373l.008-.017.032-.067s.063-.122.173-.324a38.212,38.212,0,0,1,7.037-9.645c.424-.428.854-.831,1.288-1.223.111-.1.221-.194.331-.292.23-.2.464-.4.7-.594a29.748,29.748,0,0,1,8.33-4.969c-1.08-1.227-2.206-2.422-3.389-3.572-4.775-4.631-13.744-13.063-25.276-11.909a25.611,25.611,0,0,0-14.348,6.759,15.083,15.083,0,0,1,8.2,2.283c11.185,7.355,3.191,29.359,12.891,46.087A40.016,40.016,0,0,1,10429.683,5443.85Z" transform="translate(-10408.41 -5385.327)" fill="url(#linear-gradient)"/>
        <path id="Path_14387" data-name="Path 14387" d="M10842.2,5239.164c-3.172-1.685-8.144-4.9-8.795-9.685-1.6-11.789,25.058-17.955,33.473-38.644,2.785-6.854,4.776-18.268-2.459-36.345a53.971,53.971,0,0,1-16.675,17.105c-15.3,9.713-30.34,7.361-41.556,18.729a44.9,44.9,0,0,0-7.209,9.969,41,41,0,0,0-3.869,12.6,41.994,41.994,0,0,0-.2,10.007c.1.141.419.672.427.689,4.5,8.36,15.014,13.778,15.014,13.778a40.193,40.193,0,0,0,12.723,4.039,38.127,38.127,0,0,0,7.359.338A37.426,37.426,0,0,0,10842.2,5239.164Z" transform="translate(-10773.827 -5154.49)" fill="url(#linear-gradient)"/>
        <path id="Path_14395" data-name="Path 14395" d="M10803.875,5494.8a13.936,13.936,0,0,1,3.511-6.322c9.017-9.9,20.915-5.524,30.9-14.514,7-6.3,9.321-15.8,10.408-20.239a48.591,48.591,0,0,0,1.381-11.665c-.807.58-1.586,1.107-2.318,1.572-14.249,9.048-28.273,7.632-39.189,16.578-1.32,1.221-2.455,2.3-3.328,3.175a45.548,45.548,0,0,0-6.246,8.945,41.02,41.02,0,0,0-3.871,12.6,42.088,42.088,0,0,0-.2,10.006,6.373,6.373,0,0,1,.4.64l.026.05a23.1,23.1,0,0,0,1.66,2.616,39.265,39.265,0,0,0,9.994,9.109C10805.825,5505.672,10802.557,5500.576,10803.875,5494.8Z" transform="translate(-10773.844 -5426.522)" fill="url(#linear-gradient)"/>
      </g>
    </g>
  </g>
</svg>
