<svg xmlns="http://www.w3.org/2000/svg" xmlns:xlink="http://www.w3.org/1999/xlink" width="105" height="97" viewBox="0 0 105 97">
  <defs>
    <linearGradient id="linear-gradient" x1="0.5" x2="0.5" y2="1" gradientUnits="objectBoundingBox">
      <stop offset="0" stop-color="#e4acff"/>
      <stop offset="0.008" stop-color="#fd979f"/>
      <stop offset="1" stop-color="#d252f7"/>
    </linearGradient>
    <clipPath id="clip-heart">
      <rect width="105" height="97"/>
    </clipPath>
  </defs>
  <g id="heart" clip-path="url(#clip-heart)">
    <rect width="105" height="97" fill="#fff"/>
    <path id="favorite" d="M72.059,10.346A28.324,28.324,0,0,0,50.189,20.7,28.307,28.307,0,0,0,0,38.666C0,50.893,7.291,65.037,21.671,80.7A208.7,208.7,0,0,0,48.2,104.667l1.988,1.493,1.988-1.493A208.711,208.711,0,0,0,78.707,80.7c14.38-15.666,21.672-29.809,21.672-42.037A28.352,28.352,0,0,0,72.059,10.346Z" transform="translate(2 -8.914)" fill="url(#linear-gradient)"/>
  </g>
</svg>
