<svg xmlns="http://www.w3.org/2000/svg" xmlns:xlink="http://www.w3.org/1999/xlink" width="100" height="100" viewBox="0 0 100 100">
  <defs>
    <linearGradient id="linear-gradient" x1="0.5" x2="0.5" y2="1" gradientUnits="objectBoundingBox">
      <stop offset="0" stop-color="#e4acff"/>
      <stop offset="0.008" stop-color="#fd979f"/>
      <stop offset="1" stop-color="#d252f7"/>
    </linearGradient>
    <clipPath id="clip-navigation">
      <rect width="100" height="100"/>
    </clipPath>
  </defs>
  <g id="navigation" clip-path="url(#clip-navigation)">
    <rect width="100" height="100" fill="#fff"/>
    <g id="maps-and-flags" transform="translate(15.869 2.433)">
      <g id="Group_1687" data-name="Group 1687" transform="translate(0)">
        <path id="Path_14482" data-name="Path 14482" d="M105.327,0A34.793,34.793,0,0,0,70.573,34.754c0,23.782,31.1,58.7,32.426,60.171a3.13,3.13,0,0,0,4.657,0c1.324-1.475,32.426-36.388,32.426-60.171A34.794,34.794,0,0,0,105.327,0Zm0,52.239a17.486,17.486,0,1,1,17.485-17.485A17.505,17.505,0,0,1,105.327,52.239Z" transform="translate(-70.573)" fill="url(#linear-gradient)"/>
      </g>
    </g>
  </g>
</svg>
